<svg version="1.1" id="Layer_1" xmlns="http://www.w3.org/2000/svg" x="0" y="0" viewBox="0 0 176.5 50.9" xml:space="preserve"><style>.st0{fill-rule:evenodd;clip-rule:evenodd;fill:#fff}</style><g id="Layer_2_00000115503090532269328850000004691172266001922202_"><g id="Layer_1-2"><path class="st0" d="M23.8.3h152.4v45.5c0 2.7-2.2 4.8-4.8 4.8H.4l1-2.4C7.7 33.4 13.6 18.5 19.3 3.4 20 1.5 21.8.3 23.8.3"/><path d="M23.8 2h150.7v43.8c0 1.7-1.4 3.1-3.1 3.1H3C9.2 34.1 15.2 19.1 20.9 4c.4-1.2 1.6-2 2.9-2" fill-rule="evenodd" clip-rule="evenodd" fill="#008845"/><path class="st0" d="M53.4 18.6c-1.4-.8-2.9-1.2-4.5-1.1-5.3.2-10 3.6-11.9 8.6-2 5.6 1.8 8.5 5.9 8.5 1.6.1 3.2-.2 4.6-.8l1-2.3c-1.4.7-3 1-4.6 1-3.3 0-5.9-2.1-4.4-6.3 1.3-3.7 4.9-6.3 8.8-6.3 1.3 0 2.7.3 3.8 1.1l1.3-2.4m6.9 15.9l2.8-7.9c1-2.6-.4-4.3-3-4.3-1.5-.1-2.9.5-4 1.5l2.8-8h-2.4L50 34.5h2.4l2.7-7.6c.6-1.5 2.1-2.5 3.7-2.5 2 0 2.3 1.3 1.9 2.5L58 34.5h2.3m13.1-7.6c0 .1-.1.2-.1.3h-6c.9-1.6 2.6-2.7 4.4-2.8 1-.1 1.8.7 1.9 1.7-.1.2-.1.5-.2.8m2.4-.1c.8-2.2-.3-4.5-3.6-4.5-3.7.3-6.9 2.7-8.1 6.3-1.3 3.7.8 6.2 4.2 6.2 1.3 0 2.6-.3 3.8-.8l1.1-2.3c-1.2.6-2.5 1-3.8 1-2.8 0-3.4-2.1-3-3.5h7.2l1.8-1.3c.1-.4.3-.7.4-1.1zm16.8 7.7l2.8-7.9c.9-2.6-.3-4.3-3.1-4.3-1.7 0-3.3.7-4.5 1.8-.2-1.1-1.4-1.8-2.9-1.8-1.6-.1-3.1.6-4.2 1.8l.5-1.5H79l-4.2 11.9h2.4l2.7-7.6c.5-1.5 1.9-2.6 3.6-2.5 2.2 0 2.1 1.3 1.7 2.5l-2.7 7.6h2.4l2.7-7.6c.5-1.5 1.9-2.6 3.6-2.5 2.2 0 2.1 1.3 1.7 2.5l-2.7 7.6h2.4m4.9 0l4.2-11.9h-2.4l-4.2 11.9h2.4m5.7-15.7c.2-.5-.4-1.5-.9-1.5-.8.2-1.5.7-2 1.5-.2.5.5 1.5.9 1.5.9-.2 1.6-.8 2-1.5zm4.1 17.8c-.3.9-1.7 2-3.8 2s-2.8-1.2-2.4-2.3c.5-1.3 1.8-2.2 3.2-2.3l1.8.6c.8.1 1.3.9 1.2 1.7v.3m2.7-10.3c-.5 1.2-1.7 2-3 2-.8.1-1.6-.4-1.7-1.2 0-.3 0-.6.1-.8.5-1.2 1.7-2 3-2 .8-.1 1.6.4 1.7 1.2.1.3 0 .5-.1.8zm-.5 10.3c.8-2.2-.1-3.3-1.9-4.1l-2.8-1.1c-.2-.1-.2-.3-.2-.4.2-.5.8-.7 1.7-.7 2.6 0 4.9-1.6 5.9-4 .2-.6.3-1.2.1-1.8.6 0 1.1-.1 1.6-.4l.2-2c-.6.3-1.2.4-1.9.5-.5 0-1.1-.1-1.6-.2s-1-.2-1.5-.2c-2.6 0-4.9 1.6-5.9 4-.6 1.1-.2 2.5.8 3.3-1 .3-1.8 1-2.2 1.9l.9 1.3c-1.8.4-3.2 1.7-3.8 3.5-.9 2.5.7 4.3 3.9 4.3s5.9-1.6 6.7-3.9zm9.7-6.5c-.6 1.5-2 2.6-3.6 2.7-.6.1-1.2-.3-1.3-1 0-.2 0-.4.1-.6.5-1.1 1.6-1.9 2.8-1.9l2.4-.2-.4 1m2.6 3.2c-.7-.1-1.1-.8-.7-1.8l1.7-4.8c1-2.8-.4-4.3-3.1-4.3-1.5 0-2.9.3-4.2 1l-.2 2c1.1-.6 2.4-.9 3.6-1 1.7 0 2 .9 1.6 2l-.3.8-2.9.3a6 6 0 00-5.2 3.8c-.7 1.9.2 3.7 2.6 3.7 1.5 0 2.9-.7 3.8-1.9-.2.9.4 1.7 1.2 1.9l2.1-1.7zm12-10.7h-4.2l1.3-3.6-2.8 1.2-.8 2.4H125l-.7 1.9h2.3l-2.3 6.6c-.8 2.3.5 3.5 2.7 3.5.5 0 .9-.1 1.4-.2l.9-1.9c-.4.1-.7.2-1.1.2-1.3 0-1.8-.5-1.3-1.8l2.3-6.3h3.8l.8-2m7.5 4.3c0 .1-.1.2-.1.3h-6c.9-1.6 2.6-2.7 4.4-2.8 1-.1 1.8.7 1.9 1.7 0 .2-.1.5-.2.8m2.4-.1c.8-2.2-.3-4.5-3.6-4.5-3.7.3-6.9 2.7-8.1 6.3-1.3 3.7.8 6.2 4.2 6.2 1.3 0 2.6-.2 3.8-.8l1.1-2.3c-1.2.6-2.5 1-3.8 1-2.8 0-3.4-2.1-3-3.5h7.2l1.8-1.3c.2-.4.3-.7.4-1.1z"/></g></g></svg>