<?xml version="1.0" encoding="UTF-8"?>
<svg width="437px" height="51px" viewBox="0 0 437 51" version="1.1" xmlns="http://www.w3.org/2000/svg" xmlns:xlink="http://www.w3.org/1999/xlink">
    <!-- Generator: Sketch 43.2 (39069) - http://www.bohemiancoding.com/sketch -->
    <title>Textlogo</title>
    <desc>Created with Sketch.</desc>
    <defs></defs>
    <g id="Page-2" stroke="none" stroke-width="1" fill="none" fill-rule="evenodd">
        <g id="Logoluonnoksia-Copy-19" transform="translate(-179.000000, -90.000000)">
            <g id="Textlogo" transform="translate(179.000000, 90.000000)">
                <g id="Logo-1-Copy-27" transform="translate(0.000000, 14.000000)">
                    <g id="Group">
                        <path d="M15.9565482,3.30310572 C16.0903608,3.48475643 16.2154883,3.67574412 16.3310049,3.87582484 L29.1925842,26.1527336 C30.8656693,29.050602 29.8691382,32.7581982 26.9799275,34.4262847 C24.0848258,36.0977725 20.3847699,35.1091216 18.7084937,32.2057261 L5.84691439,9.92881732 C5.78485142,9.8213211 5.72646193,9.71271066 5.67170626,9.60313144 L0.124528361,0 L13.8786633,0 L15.9565482,3.30310572 Z" id="Combined-Shape" fill="#FF0000"></path>
                        <path d="M43.6097915,9.59695448 C43.5496464,9.71884209 43.4850327,9.83955788 43.4158976,9.95890391 L30.4984651,32.2579168 C28.8225354,35.1510287 25.1027849,36.1477825 22.2000444,34.4671824 L22.2307505,34.4849603 C19.3270254,32.8037902 18.3368491,29.0915383 20.0169307,26.1921405 L32.9322943,3.90347438 C33.0173211,3.75673965 33.1076121,3.61487817 33.2027935,3.47799221 L35.3403187,0 L49.1548668,0 L43.6097915,9.59695448 Z" id="Combined-Shape" fill="#0080EA"></path>
                        <path d="M24.6232893,18.2001048 L29.9199233,27.3741441 C30.9316638,29.12653 30.9749977,31.1726457 30.2189895,32.892486 L29.8651388,33.5033288 C29.0413099,34.9254822 27.7275759,35.8930775 26.2583237,36.3148282 C23.6445097,37.0368834 20.7743149,35.9409924 19.3511629,33.4760208 L18.9029449,32.6996845 C18.2411907,31.021908 18.3248102,29.069694 19.2989551,27.3885651 L24.6232893,18.2001048 Z" id="Combined-Shape" fill="#FFB800"></path>
                    </g>
                </g>
                <path d="M49.0527868,31.0890074 C49.0527868,31.0890074 49.2245891,20.0665812 58.7683414,15.6020075 C63.4981174,13.3894151 67.0527002,13.8019183 70.36801,14.8506787 C73.6833198,15.8994391 76.0697068,19.1710118 76.0697068,19.1710118 L76.092431,14.1065508 L87.0155352,14.1065508 L86.7798682,50.0583975 L75.9533252,50.1854518 L75.8984378,44.8598476 C75.8984378,44.8598476 73.9019475,48.6195238 68.8956992,50.1854518 C68.0402817,50.4530218 60.4111492,52.5119129 54.2572685,45.7628427 C48.1033878,39.0137726 49.0527868,31.0890074 49.0527868,31.0890074 Z M68.1231837,41.0420167 C74.3899015,41.0420167 75.3791412,35.4071048 75.3791412,32.0211713 C75.3791412,28.6352379 73.6502071,23.5124719 68.1233764,23.5124719 C62.5965457,23.5124719 60.5852807,28.671426 60.5539627,32.0211713 C60.5226447,35.3709166 61.8564658,41.0420167 68.1231837,41.0420167 Z" id="Combined-Shape" fill="#0080EA"></path>
                <polygon id="Path-5" fill="#0080EA" points="97 3 107.839305 3 107.839305 50.2703617 97 50.2703617"></polygon>
                <path d="M117,14 L127.837573,14 C127.837573,14 127.74305,21.6106096 127.837573,28.3608017 C127.932095,35.1109937 128.018023,40.9656748 134.757027,40.9656748 C137.396183,40.9656748 139.309561,39.2449987 140.286296,37.7492002 C141.263032,36.2534017 141.495684,32.4780135 141.496031,28.3608017 C141.496602,21.593256 141.590734,14 141.590734,14 L152.514054,14 L152.514054,49.942317 L141.496031,49.942317 L141.496031,46.0212315 C141.496031,46.0212315 137.636966,52.6182216 125.784807,49.5847662 C121.513161,48.4914761 117,43.3236241 117,36.0227244 C117,31.2401093 117,14 117,14 Z" id="Path-6" fill="#0080EA"></path>
                <path d="M160.032928,34.697945 C160.032928,34.697945 158.423934,14.5862083 177.700662,14.0094635 C185.992071,13.7613909 192.160674,18.4324661 194.620805,23.081174 C197.080935,27.7298819 195.874472,35.8609377 195.874472,35.8609377 L171.428551,35.8609377 C171.428551,35.8609377 171.058265,39.0537169 175.330374,40.897331 C179.602483,42.7409451 183.211006,38.6527526 183.211006,38.6527526 L195.030913,38.6527526 C195.030913,38.6527526 192.959623,50.2952998 177.961977,50.640064 C171.472353,50.7892468 167.372445,48.4444319 163.729552,43.9804168 C160.086659,39.5164017 160.032928,34.697945 160.032928,34.697945 Z M171.373073,29.0457484 L184.80094,29.0457484 C184.80094,29.0457484 184.253273,23.4538603 178.087006,23.4538603 C171.92074,23.4538603 171.373073,29.0457484 171.373073,29.0457484 Z" id="Combined-Shape" fill="#0080EA"></path>
                <path d="M228.11435,49.914183 L227.676481,49.914183 C227.676481,49.914183 227.771004,42.7717385 227.676481,36.0215464 C227.581959,29.2713544 227.496031,23.4166733 220.757027,23.4166733 C218.117871,23.4166733 216.204493,25.1373494 215.227758,26.6331479 C214.251022,28.1289464 214.018371,31.9043346 214.018023,36.0215464 C214.017452,42.7890921 213.92332,50 213.92332,50 L203,50 L203,14 L214.018023,14 L214.018023,18.3611167 C214.018023,18.3611167 217.877088,11.7641266 229.729247,14.7975819 C232.412902,15.4844395 235.191881,17.7795102 236.887182,21.2013623 L239.01323,18.3611167 C239.01323,18.3611167 242.872296,11.7641266 254.724454,14.7975819 C258.996101,15.890872 263.509261,21.0587241 263.509261,28.3596237 C263.509261,33.1422388 263.509261,50 263.509261,50 L252.671688,50 C252.671688,50 252.766211,42.7717385 252.671688,36.0215464 C252.577166,29.2713544 252.491238,23.4166733 245.752234,23.4166733 C243.113078,23.4166733 241.199701,25.1373494 240.222965,26.6331479 C239.24623,28.1289464 239.013578,31.9043346 239.01323,36.0215464 C239.012659,42.7890921 239.01323,50 239.01323,50 L228.08991,50 L228.11435,49.914183 Z" id="Combined-Shape" fill="#0080EA"></path>
                <path d="M289.693637,50.3681654 C278.509886,50.3681654 271,43.013761 271,32.1840827 C271,21.3544044 277.71136,14 289.693637,14 C301.675914,14 307.461134,21.9255746 307.461134,32.1840827 C307.461134,42.4425908 300.877388,50.3681654 289.693637,50.3681654 Z M282.112495,30.9168973 C282.112495,33.3774637 282.231173,40.8091108 289.684977,40.8091108 C297.138781,40.8091108 297.114834,32.9258049 297.114834,30.9168973 C297.114834,28.9079898 295.755804,23.0920414 289.684977,23.0920414 C283.614149,23.0920414 282.112495,28.456331 282.112495,30.9168973 Z" id="Combined-Shape" fill="#0080EA"></path>
                <polygon id="Path-9" fill="#0080EA" points="317.34936 3 328.252817 3 328.252817 14.0427318 334.348425 14.0427318 334.348425 23.379544 328.31047 23.379544 328.31047 49.950688 317.320841 49.950688 317.320841 23.379544 311 23.379544 311 14.0427318 317.233042 14.0427318"></polygon>
                <path d="M341.909323,14 L352.748628,14 L352.748628,50 L341.909323,50 L341.909323,14 Z M346.9,12.1000032 C343.64152,12.1000032 341,9.45848322 341,6.20000315 C341,2.94152307 343.64152,0.300003052 346.9,0.300003052 C350.15848,0.300003052 352.8,2.94152307 352.8,6.20000315 C352.8,9.45848322 350.15848,12.1000032 346.9,12.1000032 Z" id="Combined-Shape" fill="#0080EA"></path>
                <polygon id="Path-10" fill="#0080EA" points="358 14.1166908 369.940811 14.1166908 378.338649 40.1461368 387.177094 14 399.076983 14 384.635423 50.0632374 372.097768 50.0632374"></polygon>
                <path d="M400.032928,34.697945 C400.032928,34.697945 398.423934,14.5862083 417.700662,14.0094635 C425.992071,13.7613909 432.160674,18.4324661 434.620805,23.081174 C437.080935,27.7298819 435.874472,35.8609377 435.874472,35.8609377 L411.428551,35.8609377 C411.428551,35.8609377 411.058265,39.0537169 415.330374,40.897331 C419.602483,42.7409451 423.211006,38.6527526 423.211006,38.6527526 L435.030913,38.6527526 C435.030913,38.6527526 432.959623,50.2952998 417.961977,50.640064 C411.472353,50.7892468 407.372445,48.4444319 403.729552,43.9804168 C400.086659,39.5164017 400.032928,34.697945 400.032928,34.697945 Z M411.373073,29.0457484 L424.80094,29.0457484 C424.80094,29.0457484 424.253273,23.4538603 418.087006,23.4538603 C411.92074,23.4538603 411.373073,29.0457484 411.373073,29.0457484 Z" id="Combined-Shape" fill="#0080EA"></path>
            </g>
        </g>
    </g>
</svg>